<?xml version="1.0" encoding="UTF-8"?>
<svg xmlns="http://www.w3.org/2000/svg" xmlns:xlink="http://www.w3.org/1999/xlink" width="375pt" height="374.999991pt" viewBox="0 0 375 374.999991" version="1.2">
<defs>
<clipPath id="clip1">
  <path d="M 86.347656 147 L 353.832031 147 L 353.832031 368.25 L 86.347656 368.25 Z M 86.347656 147 "/>
</clipPath>
<clipPath id="clip2">
  <path d="M 296 67 L 363.929688 67 L 363.929688 139.847656 L 296 139.847656 Z M 296 67 "/>
</clipPath>
</defs>
<g id="surface1">
<g clip-path="url(#clip1)" clip-rule="nonzero">
<path style=" stroke:none;fill-rule:nonzero;fill:rgb(100%,100%,100%);fill-opacity:1;" d="M 345.082031 228.640625 C 351.15625 240.472656 354.363281 253.09375 353.238281 266.140625 C 351.410156 287.363281 334.417969 305.941406 313.8125 311.277344 C 288.683594 317.785156 261.933594 305.847656 237.328125 315.09375 C 216.417969 322.953125 200.394531 339.695312 182.777344 352.769531 C 171.222656 361.351562 157.769531 368.847656 143.390625 368.253906 C 125.722656 367.523438 110.636719 354.566406 101.210938 339.585938 C 84.40625 312.882812 83.636719 281.898438 91.632812 252.171875 C 96.488281 234.101562 104.171875 217.425781 114.808594 202.089844 C 124.222656 188.515625 135.550781 176.746094 149.417969 167.730469 C 182.632812 146.140625 221.011719 140.738281 258.066406 155.9375 C 287.847656 168.148438 327.90625 195.214844 345.082031 228.640625 "/>
</g>
<path style=" stroke:none;fill-rule:nonzero;fill:rgb(100%,100%,100%);fill-opacity:1;" d="M 195.324219 100.503906 C 180.335938 75.226562 185.707031 34.792969 208.855469 16.097656 C 228.742188 0.046875 257.976562 2.519531 268.6875 27.949219 C 274.34375 41.382812 273.269531 56.730469 269.976562 70.925781 C 266.59375 85.519531 260.585938 100.148438 249.261719 109.941406 C 230.535156 126.136719 206.546875 119.441406 195.324219 100.503906 "/>
<path style=" stroke:none;fill-rule:nonzero;fill:rgb(100%,100%,100%);fill-opacity:1;" d="M 143.03125 68.238281 C 151.296875 83.230469 154.941406 101.007812 151.53125 115.40625 C 149.332031 124.691406 143.558594 133.382812 135.0625 137.703125 C 123.433594 143.621094 109.011719 140.449219 97.757812 133.847656 C 79.089844 122.886719 66.226562 102.386719 64.203125 80.835938 C 62.140625 58.886719 84.769531 32.410156 107.828125 38.039062 C 122.464844 41.609375 134.953125 53.59375 143.03125 68.238281 "/>
<g clip-path="url(#clip2)" clip-rule="nonzero">
<path style=" stroke:none;fill-rule:nonzero;fill:rgb(100%,100%,100%);fill-opacity:1;" d="M 302.136719 122.96875 C 293.027344 107.71875 292.957031 85.863281 310.394531 74.296875 C 324.003906 65.269531 343.78125 63.613281 356.34375 75.3125 C 363.175781 81.683594 364.542969 91.539062 363.71875 100.457031 C 362.460938 113.984375 355.851562 127.449219 344.378906 134.710938 C 327.015625 145.695312 310.644531 137.207031 302.136719 122.96875 "/>
</g>
<path style=" stroke:none;fill-rule:nonzero;fill:rgb(100%,100%,100%);fill-opacity:1;" d="M 18.46875 186.769531 C 17.746094 185.476562 17.078125 184.15625 16.476562 182.820312 C 11.589844 171.917969 10.714844 158.707031 16.476562 148.242188 C 33.570312 117.199219 73.761719 141.394531 79.714844 167.585938 C 82.441406 179.597656 79.464844 193.441406 70.003906 201.320312 C 61.601562 208.316406 49.203125 209.507812 39.039062 205.488281 C 30.242188 202.015625 23.121094 195.046875 18.46875 186.769531 "/>
</g>
</svg>
